PathFileType	4	(X/Y/Z)	/Users/itak/Documents/Research/Walk-IL/dataset/trc/00469_00167.trc
DataRate	CameraRate	NumFrames	NumMarkers	Units	OrigDataRate	OrigDataStartFrame	OrigNumFrames
100.000000	100.000000	4	53	mm	100.000000	549	628
Frame#	Time	RPSI			LPSI			L3			STRN			T10			C7			CLAV			RBAK			LBAK			LSHO			LUPA			LAEL			LAOL			LWTS			LWPS			LFRA			LIFD			LHPS			LHTS			RSHO			RUPA			RAEL			RAOL			RWTS			RWPS			RFRA			RIFD			RHTS			RHPS			RBHD			LFHD			RFHD			LBHD			LHIP			RHIP			RASI			LASI			LKNE			LTHI			LANK			LTIP			LTOE			LMT1			LMT5			LHEE			RKNE			RTHI			RANK			RTIP			RTOE			RMT1			RMT5			RHEE			
		X1	Y1	Z1	X2	Y2	Z2	X3	Y3	Z3	X4	Y4	Z4	X5	Y5	Z5	X6	Y6	Z6	X7	Y7	Z7	X8	Y8	Z8	X9	Y9	Z9	X10	Y10	Z10	X11	Y11	Z11	X12	Y12	Z12	X13	Y13	Z13	X14	Y14	Z14	X15	Y15	Z15	X16	Y16	Z16	X17	Y17	Z17	X18	Y18	Z18	X19	Y19	Z19	X20	Y20	Z20	X21	Y21	Z21	X22	Y22	Z22	X23	Y23	Z23	X24	Y24	Z24	X25	Y25	Z25	X26	Y26	Z26	X27	Y27	Z27	X28	Y28	Z28	X29	Y29	Z29	X30	Y30	Z30	X31	Y31	Z31	X32	Y32	Z32	X33	Y33	Z33	X34	Y34	Z34	X35	Y35	Z35	X36	Y36	Z36	X37	Y37	Z37	X38	Y38	Z38	X39	Y39	Z39	X40	Y40	Z40	X41	Y41	Z41	X42	Y42	Z42	X43	Y43	Z43	X44	Y44	Z44	X45	Y45	Z45	X46	Y46	Z46	X47	Y47	Z47	X48	Y48	Z48	X49	Y49	Z49	X50	Y50	Z50	X51	Y51	Z51	X52	Y52	Z52	X53	Y53	Z53	

550	5.49	-552.7351684570312	958.36181640625	-398.2072448730469	-578.3566284179688	953.589111328125	-258.1108093261719	-571.8189697265625	1054.8505859375	-348.8079833984375	-833.9824829101562	1260.801635742188	-368.511474609375	-550.3221435546875	1178.89501953125	-347.5468139648438	-606.7086791992188	1449.452514648438	-358.3393859863281	-794.0963134765625	1371.619506835938	-358.1439208984375	-544.2516479492188	1329.437622070312	-454.6820373535156	-581.520751953125	1397.767456054688	-257.2401733398438	-689.4772338867188	1417.208984375	-185.1999816894531	-694.16015625	1294.39990234375	-92.56581878662109	-737.3147583007812	1080.656127929688	-69.20393371582031	-654.4515991210938	1058.20849609375	-128.9515380859375	-850.4190063476562	904.66064453125	-136.6795501708984	-813.7974243164062	875.8688354492188	-78.42595672607422	-774.9159545898438	998.09228515625	-68.45927429199219	-897.0877075195312	753.67138671875	-133.6582794189453	-840.327880859375	803.9816284179688	-82.99304962158203	-887.7620849609375	827.9737548828125	-132.4432678222656	-668.373779296875	1428.443237304688	-522.5888671875	-652.1058959960938	1372.000122070312	-601.54248046875	-684.2838745117188	1089.931762695312	-677.6202392578125	-636.5407104492188	1062.036865234375	-638.5352783203125	-825.9043579101562	909.2783813476562	-640.8037109375	-766.010009765625	882.7113037109375	-699.8765258789062	-698.7108764648438	1033.585205078125	-689.9963989257812	-865.911865234375	759.768310546875	-659.1718139648438	-863.3461303710938	819.92333984375	-655.8956298828125	-801.504638671875	802.6123046875	-700.542236328125	-701.9810180664062	1652.346923828125	-443.7005920410156	-835.5226440429688	1655.6240234375	-286.0374145507812	-837.2369995117188	1660.670166015625	-416.7472534179688	-683.91943359375	1651.291625976562	-267.2306518554688	-737.5704956054688	866.28759765625	-163.3013305664062	-648.9738159179688	858.4144287109375	-552.3169555664062	-762.9638061523438	905.6433715820312	-512.728759765625	-818.100830078125	907.3062133789062	-260.1468200683594	-796.3668212890625	452.1490783691406	-188.7160034179688	-800.8662109375	606.1892700195312	-173.9882202148438	-716.5009155273438	43.14715194702148	-158.6361541748047	-788.5438232421875	301.0043640136719	-165.9385375976562	-940.77490234375	43.55883026123047	-253.8348846435547	-860.7142944335938	47.86176681518555	-274.5463256835938	-869.5221557617188	47.94723510742188	-161.4038238525391	-664.5362548828125	45.78943634033203	-217.0988922119141	-693.4439086914062	468.740478515625	-517.6295166015625	-695.9142456054688	727.7406005859375	-564.5839233398438	-656.493896484375	45.74948883056641	-501.5218811035156	-702.1383666992188	323.5285949707031	-521.2592163085938	-872.6182250976562	47.09946060180664	-453.7267761230469	-807.3588256835938	47.94610214233398	-419.66552734375	-789.56787109375	48.67719268798828	-525.83837890625	-591.7149047851562	40.2091178894043	-455.4397277832031	
551	5.5	-556.3888549804688	958.086181640625	-396.0830383300781	-582.4290771484375	953.0219116210938	-256.0865783691406	-575.240234375	1053.848022460938	-346.1510925292969	-836.2372436523438	1260.966186523438	-366.4070129394531	-553.3059692382812	1177.916381835938	-344.591064453125	-608.0807495117188	1448.861938476562	-355.8576965332031	-795.7611083984375	1371.590454101562	-356.0580139160156	-545.45556640625	1328.287353515625	-451.6971740722656	-583.527099609375	1396.902954101562	-254.5837860107422	-691.4376220703125	1416.6259765625	-182.7148132324219	-696.5914306640625	1293.4892578125	-90.20694732666016	-739.8179321289062	1079.448974609375	-67.60680389404297	-656.6769409179688	1057.563354492188	-127.2158355712891	-850.3442993164062	901.7041625976562	-134.9318695068359	-813.4981689453125	873.6876220703125	-76.46192169189453	-776.4006958007812	996.43017578125	-66.78919982910156	-894.8322143554688	750.111328125	-131.4436187744141	-838.9619750976562	801.381591796875	-80.84098052978516	-886.67529296875	824.5403442382812	-130.3744659423828	-669.2730712890625	1427.358032226562	-520.5449829101562	-652.8362426757812	1370.186889648438	-599.0916137695312	-685.2769165039062	1087.718994140625	-673.4834594726562	-637.3924560546875	1060.702758789062	-633.97412109375	-822.84716796875	903.6722412109375	-636.8401489257812	-762.1698608398438	878.8450927734375	-695.9236450195312	-698.4940185546875	1031.139282226562	-685.8353271484375	-858.4923095703125	753.0491333007812	-655.1666259765625	-857.7316284179688	813.2160034179688	-651.6406860351562	-795.4542846679688	797.7431030273438	-696.5862426757812	-702.8133544921875	1652.475463867188	-441.0662231445312	-836.77001953125	1655.589233398438	-283.7186279296875	-838.1145629882812	1660.839965820312	-414.4375305175781	-685.1785888671875	1651.148681640625	-264.5706481933594	-741.0611572265625	866.1107788085938	-161.5801086425781	-652.3854370117188	858.913330078125	-550.9013671875	-766.6414184570312	906.1214599609375	-511.4076232910156	-822.0858764648438	906.6995239257812	-258.4783630371094	-792.7723388671875	451.9530029296875	-186.3899993896484	-799.1570434570312	605.649169921875	-171.4625091552734	-716.28759765625	42.67398452758789	-158.3546752929688	-786.1034545898438	301.0007019042969	-164.2699279785156	-940.8615112304688	43.02860641479492	-253.5487213134766	-860.7550659179688	47.95394897460938	-274	-869.64111328125	47.16335296630859	-160.6121673583984	-664.3858032226562	45.61305236816406	-216.8787078857422	-695.0161743164062	469.0515441894531	-516.8613891601562	-698.8038940429688	727.9955444335938	-563.898681640625	-656.6478881835938	45.94242095947266	-501.4527893066406	-703.0935668945312	323.8719787597656	-520.7392578125	-872.6918334960938	47.06875991821289	-453.7389526367188	-807.4171142578125	47.962158203125	-419.6246337890625	-789.6456909179688	48.67831039428711	-525.7686767578125	-591.8695068359375	40.38602828979492	-455.39208984375	
552	5.51	-559.950439453125	957.9957275390625	-394.285888671875	-586.2864379882812	952.957763671875	-254.4374237060547	-578.5770874023438	1053.070678710938	-343.8112182617188	-838.4778442382812	1261.366943359375	-364.3267211914062	-556.1726684570312	1177.155395507812	-341.8396301269531	-609.41357421875	1448.414428710938	-353.4716796875	-797.352294921875	1371.762939453125	-354.0178833007812	-546.6171264648438	1327.307495117188	-448.8360595703125	-585.464599609375	1396.214111328125	-252.0265502929688	-693.3129272460938	1416.225952148438	-180.3053588867188	-698.942138671875	1292.794067382812	-87.90911865234375	-742.2831420898438	1078.484619140625	-66.02108001708984	-658.8778686523438	1057.136474609375	-125.5072708129883	-850.1322631835938	898.8980102539062	-133.0014038085938	-813.0437622070312	871.7259521484375	-74.31009674072266	-777.8086547851562	995.0120849609375	-65.05295562744141	-892.2164306640625	746.6695556640625	-129.0181732177734	-837.349609375	798.9737548828125	-78.4698486328125	-885.314697265625	821.2028198242188	-128.1372833251953	-670.1797485351562	1426.3935546875	-518.6056518554688	-653.5618286132812	1368.429077148438	-596.7062377929688	-686.1220703125	1085.589965820312	-669.2278442382812	-638.1376953125	1059.494995117188	-629.1806030273438	-819.54248046875	898.244140625	-632.9447631835938	-757.9678955078125	875.1651000976562	-691.8226318359375	-698.081787109375	1028.806274414062	-681.5418701171875	-850.836669921875	746.6726684570312	-651.4225463867188	-851.845458984375	806.7984008789062	-647.6634521484375	-789.0358276367188	793.1558837890625	-692.6235961914062	-703.5511474609375	1652.731323242188	-438.4618835449219	-837.9290771484375	1655.704711914062	-281.4201049804688	-838.9131469726562	1661.154418945312	-412.1637573242188	-686.3657836914062	1651.145751953125	-261.9266967773438	-744.2655029296875	866.380126953125	-159.9276580810547	-655.7687377929688	859.406005859375	-549.570556640625	-770.3177490234375	906.601806640625	-510.032470703125	-825.8878173828125	906.5587158203125	-256.7893981933594	-789.107177734375	452.1933898925781	-183.96142578125	-797.635986328125	605.61669921875	-168.9440765380859	-716.115234375	42.32269287109375	-157.9557952880859	-783.57763671875	301.4068908691406	-162.40380859375	-940.8095092773438	42.92721557617188	-253.195068359375	-860.7405395507812	48.35690307617188	-273.3840637207031	-869.6934204101562	46.65390777587891	-159.8271179199219	-664.2496948242188	45.63438415527344	-216.5165863037109	-696.5226440429688	469.4033813476562	-516.076416015625	-701.6300048828125	728.283203125	-563.173095703125	-656.8324584960938	46.1644287109375	-501.3554992675781	-704.0148315429688	324.266845703125	-520.238525390625	-872.7821044921875	47.03583908081055	-453.7688903808594	-807.49169921875	47.98727416992188	-419.6004333496094	-789.7265014648438	48.66379547119141	-525.7169799804688	-592.0518798828125	40.60500335693359	-455.3174743652344	
553	5.52	-563.4426879882812	958.1461181640625	-392.8234252929688	-589.9824829101562	953.423828125	-253.1769866943359	-581.8326416015625	1052.514282226562	-341.818115234375	-840.7072143554688	1262.001098632812	-362.3019104003906	-558.8803100585938	1176.57568359375	-339.3397521972656	-610.7059326171875	1448.065307617188	-351.2131042480469	-798.8814086914062	1372.136596679688	-352.045166015625	-547.785888671875	1326.497802734375	-446.1553344726562	-587.3131713867188	1395.674560546875	-249.6182250976562	-695.090576171875	1416.020874023438	-178.01220703125	-701.2070922851562	1292.363525390625	-85.69615173339844	-744.6967163085938	1077.815551757812	-64.46745300292969	-661.045654296875	1056.981567382812	-123.8467788696289	-849.7955322265625	896.295654296875	-130.8867034912109	-812.4474487304688	870.0362548828125	-71.96980285644531	-779.1351928710938	993.8970947265625	-63.25909805297852	-889.24169921875	743.3944702148438	-126.3705902099609	-835.5006713867188	796.8161010742188	-75.87266540527344	-883.6875610351562	818.0082397460938	-125.7293243408203	-671.12109375	1425.572998046875	-516.7764892578125	-654.322265625	1366.802490234375	-594.4150390625	-686.7964477539062	1083.611206054688	-664.8746948242188	-638.7546997070312	1058.482543945312	-624.1845092773438	-816.0109252929688	893.0687866210938	-629.1163330078125	-753.4349975585938	871.7239990234375	-687.5699462890625	-697.4783935546875	1026.652099609375	-677.1307373046875	-842.9891357421875	740.7045288085938	-647.8796997070312	-845.705078125	800.7315673828125	-643.9652099609375	-782.2777709960938	788.9121704101562	-688.6083984375	-704.1859741210938	1653.068237304688	-435.8968200683594	-838.9669799804688	1655.928588867188	-279.1438903808594	-839.6201171875	1661.588500976562	-409.9245300292969	-687.4459228515625	1651.203979492188	-259.31396484375	-747.2247314453125	866.9716796875	-158.3835754394531	-659.1160888671875	859.9027709960938	-548.3168334960938	-773.9928588867188	907.0827026367188	-508.6155700683594	-829.5599975585938	906.8079833984375	-255.0830841064453	-785.38818359375	452.6638488769531	-181.5022735595703	-796.3372802734375	605.8643798828125	-166.5575866699219	-715.9995727539062	42.01348495483398	-157.4604797363281	-780.9882202148438	302.0390319824219	-160.4208679199219	-940.6455078125	43.099609375	-252.8087005615234	-860.6823120117188	48.92485809326172	-272.747314453125	-869.7073974609375	46.31612777709961	-159.0898590087891	-664.1414794921875	45.75481414794922	-216.0290374755859	-697.9876098632812	469.7844848632812	-515.2847290039062	-704.3685302734375	728.5986328125	-562.4044799804688	-657.0263671875	46.40297698974609	-501.2324523925781	-704.9219970703125	324.6874694824219	-519.7697143554688	-872.8854370117188	47.00197219848633	-453.813720703125	-807.5803833007812	48.02000045776367	-419.5927734375	-789.8054809570312	48.63519287109375	-525.68212890625	-592.2515869140625	40.85498046875	-455.2110595703125	
